<svg width="38" height="42" viewBox="0 0 38 42" fill="none" xmlns="http://www.w3.org/2000/svg">
<path d="M33.3333 4.16667H29.1667V0H25V4.16667H12.5V0H8.33333V4.16667H4.16667C1.86875 4.16667 0 6.03542 0 8.33333V37.5C0 39.7979 1.86875 41.6667 4.16667 41.6667H33.3333C35.6312 41.6667 37.5 39.7979 37.5 37.5V8.33333C37.5 6.03542 35.6312 4.16667 33.3333 4.16667ZM33.3375 37.5H4.16667V12.5H33.3333L33.3375 37.5Z" fill="#E76F51"/>
<path d="M16.6667 32.1126L28.5563 20.223L25.6105 17.2771L16.6667 26.2209L11.8896 21.4438L8.94381 24.3896L16.6667 32.1126Z" fill="#E76F51"/>
</svg>
