<svg width="20" height="20" viewBox="0 0 20 20" fill="none" xmlns="http://www.w3.org/2000/svg">
<path d="M16.6673 7.5V5H15.0006V7.5H12.5006V9.16667H15.0006V11.6667H16.6673V9.16667H19.1673V7.5H16.6673ZM7.50065 10C9.34232 10 10.834 8.50834 10.834 6.66667C10.834 4.825 9.34232 3.33334 7.50065 3.33334C5.65898 3.33334 4.16732 4.825 4.16732 6.66667C4.16732 8.50834 5.65898 10 7.50065 10ZM7.50065 5C8.41732 5 9.16732 5.75 9.16732 6.66667C9.16732 7.58334 8.41732 8.33334 7.50065 8.33334C6.58398 8.33334 5.83398 7.58334 5.83398 6.66667C5.83398 5.75 6.58398 5 7.50065 5ZM12.8257 12.1333C11.4257 11.4167 9.60898 10.8333 7.50065 10.8333C5.39232 10.8333 3.57565 11.4167 2.17565 12.1333C1.34232 12.5583 0.833984 13.4167 0.833984 14.35V16.6667H14.1673V14.35C14.1673 13.4167 13.659 12.5583 12.8257 12.1333ZM12.5006 15H2.50065V14.35C2.50065 14.0333 2.66732 13.75 2.93398 13.6167C3.92565 13.1083 5.52565 12.5 7.50065 12.5C9.47565 12.5 11.0756 13.1083 12.0673 13.6167C12.334 13.75 12.5006 14.0333 12.5006 14.35V15Z" fill="#E76F51"/>
</svg>
